<svg version="1.0" xmlns="http://www.w3.org/2000/svg"
     width="76.000000pt" height="76.000000pt" viewBox="0 0 76.000000 76.000000"
     preserveAspectRatio="xMidYMid meet">

<g transform="translate(0.000000,76.000000) scale(0.100000,-0.100000)"
   fill="#395697" stroke="none">
    <path d="M0 380 l0 -380 380 0 380 0 0 380 0 380 -380 0 -380 0 0 -380z m300
155 l0 -85 75 0 75 0 0 85 0 85 65 0 65 0 0 -250 0 -250 -66 0 -65 0 3 105 3
105 -77 0 -78 0 0 -105 0 -105 -60 0 -60 0 0 250 0 250 60 0 60 0 0 -85z"/>
</g>
</svg>
